<svg xmlns="http://www.w3.org/2000/svg" width="1228" height="231" viewBox="0 0 1228 231">
  <defs>
    <style>
      .cls-1 {
        fill: #379908;
      }

      .cls-1, .cls-2 {
        fill-rule: evenodd;
      }

      .cls-2 {
        fill: #e1c050;
      }
    </style>
  </defs>
  <path id="_Siembra" data-name="{Siembra" class="cls-1" d="M99.163,95.8c0-21.8-26.2-33-43.8-33-8,0-16.8,2.4-16.8,9.8,0,14.2,45,14.4,54.6,23.8,2.2,2,4,5.6,5,5.6C98.763,102,99.163,100.4,99.163,95.8Zm-7.6,27.8c3.6-2,5.2-3.4,5.2-4.4,0-1.6-3.6-2.4-9.8-2.4-17.8,0-41.4,22.8-41.4,42.4,0,6,4.4,8.8,9,8.8C71.563,168,78.163,130.2,91.563,123.6Zm-27-29c-13.2,0-22,4-34,10-13.8,7-18.8,13.8-18.8,19.2,0,7.2,7,11.4,11.4,11.4,22,0,37-24.8,61.4-24.8,8.6,0,12-1.4,12-3.4C96.563,101.6,77.563,94.6,64.563,94.6Zm73.6,63.4c24.8,0,36-16.6,36-35.4,0-41.6-52.2-38.4-52.2-71.4,0-12.8,10.2-19.4,21-19.4,7.2,0,14.8,5.4,17.2,16.8a4.88,4.88,0,0,0,4.4,3.6c2.6,0,5-2.8,5-6.2a6.159,6.159,0,0,0-.6-2.6c-3.8-12.6-14-22-25.6-22-23.8,0-37.2,16.8-37.2,35.4,0,39.2,52.6,40.6,52.6,68.8,0,17.2-7.4,23.2-17.2,23.2-11.2,0-26.8-8.4-31.2-14.2a4.8,4.8,0,0,0-3.8-2.2c-2.8,0-4.8,2.8-4.8,6.2a6.758,6.758,0,0,0,1.2,4C110.364,151.8,124.764,158,138.164,158Zm44.2-113.2c0,8.2,5.4,12.6,10.2,12.6,4,0,7.6-3.2,7.6-9.8,0-8.2-5.2-12.6-10-12.6C186.164,35,182.364,38.2,182.364,44.8Zm17.4,43V87c0-4-4.4-6.2-9-6.2-4,0-7.8,1.6-8.6,5-1,13-1.4,27.2-1.4,41.4,0,10,.2,20,0.4,30,0.6,3.2,4.2,4.8,8,4.8,4.8,0,9.8-2.2,9.8-6a5.84,5.84,0,0,0-.4-1.8c-0.6-6.4-.8-13.2-0.8-20.4C197.764,118,198.964,101.4,199.764,87.8Zm23.4,34.6a61.035,61.035,0,0,0,10.4,1c17.4,0,32.4-8.8,32.4-31.6,0-15-12.6-23.4-25.8-23.4-22.6,0-34.8,25.2-34.8,53,0,26.8,14,36.4,29.2,36.4,12.6,0,26-6.6,33.2-15.4a6.764,6.764,0,0,0,1.2-4c0-3.4-2.2-6.2-5-6.2-1.4,0-2.4,1-3.8,2.2-5.4,5.2-14.6,10.8-22.4,10.8S223.361,139.6,223.161,122.4Zm1-13c2.6-15.6,10.6-29.2,23.2-29.2,5,0,9,3.4,9,12.4,0,14.4-9.4,18-19.8,18A84.028,84.028,0,0,1,224.161,109.4Zm67.2,6.4c0.8-12,2.8-24.4,4-34.6V80.4c0-4-4.4-6.2-9-6.2-4,0-7.8,1.8-8.6,5.2-2.8,13.2-3.6,27.4-3.6,42.6a146.138,146.138,0,0,0,2.8,28.8c0.6,3.2,4,4.6,7.8,4.6,4.8,0,9.8-2.2,9.8-6a4.4,4.4,0,0,0-.2-1.6c0-15.8,14.2-49.4,22-49.4,3,0,5,4.4,5,16,0,10.2-3.2,23.2-3.8,26.8v0.6c0,4,4.4,6.2,9,6.2,4,0,7.8-1.6,8.6-5a76.894,76.894,0,0,0,3-18.6c4.6-17.6,14.8-38.2,21-38.2,4,0,5,9.2,5,20.8,0,19.2-3.2,44.4-3.2,44.6,0,4,4.4,6.4,9,6.4,4,0,7.8-1.8,8.6-5.2,1-9.6,2.6-24.8,2.6-39.4,0-20.8-3-40.6-14.8-40.6-9.2,0-21,11.4-29.4,26.8-2.4-12.2-7.6-17.2-13.8-17.2C312.759,82.4,299.36,97,291.36,115.8Zm118,27.4c-0.6-8.2-.8-17.4-1-27.2,3.2-13.2,12-24.6,21-24.6,11.4,0,16.2,10.8,16.2,24.8,0,17.6-11,36.8-24.6,36.8C418.558,151,412.158,149,409.358,143.2Zm0.6,15.4a30.489,30.489,0,0,0,18.8,6.8c19.4,0,34.6-24.6,34.6-49.2,0-19.6-9-37.2-26-37.2-11.2,0-21.6,6.4-29,15.8V89.2c11.6-11.8,25.4-30.8,25.4-54.8a54.3,54.3,0,0,0-.2-5.8c-1-10-11.4-15.6-17.8-15.6-20.6,0-26.4,31.8-26.4,74.2,0,24,1.4,48.2,3.2,66.6,0.6,7.2,5.6,11.2,10.2,11.2C405.958,165,408.958,163,409.958,158.6Zm13.8-125.8c0,16.8-7.2,32-15,43,1.2-29.2,5.2-51,12.4-51C423.558,24.8,423.758,29.2,423.758,32.8Zm62.6,86.6c0.8-12.4,2.8-25.2,4-35.8V83c0-4-4.4-6.2-9-6.2-4,0-7.8,1.6-8.6,5-2.8,13.2-3.6,27.6-3.6,42.8a144.19,144.19,0,0,0,2.8,28.6c0.6,3.2,4,4.8,7.8,4.8,4.8,0,9.8-2.4,9.8-6.2a4.4,4.4,0,0,0-.2-1.6c0-20.8,24.4-61.4,33.4-61.4,2,0,3.4,2.2,3.4,7,0,5.8-3.8,12.2-3.8,16.4s2.6,6.2,5,6.2c5.2,0,8.2-13.6,8.2-26,0-13.8-4-19.6-9.6-19.6C514.555,72.8,496.355,95.2,486.355,119.4Zm110.2-20c-0.6,7-1,14-1,21.4-3,13.4-11.8,25-21,25-11.4,0-16.2-10.8-16.2-24.8,0-17.6,11-36.8,24.6-36.8C586.153,87.8,593.953,91,596.553,99.4Zm20.2-15.6c0-.2.2-0.4,0.2-0.6,0-4-4.6-6.2-9.2-6.2-4,0-7.8,1.6-8.6,5a3.4,3.4,0,0,0-.2,1.4c-6-7-14.4-11.6-23.8-11.6-19.4,0-34.6,24.6-34.6,49.2,0,19.6,9,37.2,26,37.2,11.6,0,22.4-6.8,29.8-16.8,0.4,4,1.2,7.8,2,12,0.6,3.2,4,4.8,7.8,4.8,4.8,0,9.8-2.4,9.8-6.2a4.4,4.4,0,0,0-.2-1.6c-2.4-6.6-3.4-14.4-3.4-22.6C612.353,113,615.153,96.8,616.753,83.8Z"/>
  <path id="Urbana_" data-name="Urbana}" class="cls-2" d="M706.062,27.6c-0.6-3.4-2.8-4.8-4.8-4.8-2.8,0-5.8,2.8-5.8,7.6a8.2,8.2,0,0,0,.2,2.2c2.6,14.2,6.4,36.6,6.4,57.4,0,27.2-6.2,51.4-28.2,51.4-24.6,0-30.2-25-30.2-52.8,0-22,2-46,4.4-60,0-.4.2-0.6,0.2-1,0-4.6-6.4-6-10.6-6-4,0-7.6,1.8-7.6,5.2-0.8,15.8-3.2,38-3.2,59.8,0,36.2,7,71,41.6,71,34.2,0,44-34.8,44-72C712.461,65.4,709.461,44.4,706.062,27.6Zm30.6,91.8c0.8-12.4,2.8-25.2,4-35.8V83c0-4-4.4-6.2-9-6.2-4,0-7.8,1.6-8.6,5-2.8,13.2-3.6,27.6-3.6,42.8a144.19,144.19,0,0,0,2.8,28.6c0.6,3.2,4,4.8,7.8,4.8,4.8,0,9.8-2.4,9.8-6.2a4.4,4.4,0,0,0-.2-1.6c0-20.8,24.4-61.4,33.4-61.4,2,0,3.4,2.2,3.4,7,0,5.8-3.8,12.2-3.8,16.4s2.6,6.2,5,6.2c5.2,0,8.2-13.6,8.2-26,0-13.8-4-19.6-9.6-19.6C764.861,72.8,746.662,95.2,736.662,119.4Zm76.6,23.8c-0.6-8.2-.8-17.4-1-27.2,3.2-13.2,12-24.6,21-24.6,11.4,0,16.2,10.8,16.2,24.8,0,17.6-11,36.8-24.6,36.8C822.46,151,816.06,149,813.26,143.2Zm0.6,15.4a30.489,30.489,0,0,0,18.8,6.8c19.4,0,34.6-24.6,34.6-49.2,0-19.6-9-37.2-26-37.2-11.2,0-21.6,6.4-29,15.8V89.2c11.6-11.8,25.4-30.8,25.4-54.8a54.3,54.3,0,0,0-.2-5.8c-1-10-11.4-15.6-17.8-15.6-20.6,0-26.4,31.8-26.4,74.2,0,24,1.4,48.2,3.2,66.6,0.6,7.2,5.6,11.2,10.2,11.2C809.86,165,812.86,163,813.86,158.6Zm13.8-125.8c0,16.8-7.2,32-15,43,1.2-29.2,5.2-51,12.4-51C827.46,24.8,827.66,29.2,827.66,32.8Zm99.6,66.6c-0.6,7-1,14-1,21.4-3,13.4-11.8,25-21,25-11.4,0-16.2-10.8-16.2-24.8,0-17.6,11-36.8,24.6-36.8C916.857,87.8,924.657,91,927.257,99.4Zm20.2-15.6c0-.2.2-0.4,0.2-0.6,0-4-4.6-6.2-9.2-6.2-4,0-7.8,1.6-8.6,5a3.4,3.4,0,0,0-.2,1.4c-6-7-14.4-11.6-23.8-11.6-19.4,0-34.6,24.6-34.6,49.2,0,19.6,9,37.2,26,37.2,11.6,0,22.4-6.8,29.8-16.8,0.4,4,1.2,7.8,2,12,0.6,3.2,4,4.8,7.8,4.8,4.8,0,9.8-2.4,9.8-6.2a4.4,4.4,0,0,0-.2-1.6c-2.4-6.6-3.4-14.4-3.4-22.6C943.057,113,945.857,96.8,947.456,83.8Zm24,33c0.8-11.6,2.8-23.2,4-33V83c0-4-4.4-6.2-9-6.2-4,0-7.8,1.6-8.6,5-2.8,13.2-3.6,27.6-3.6,42.8a146.141,146.141,0,0,0,2.8,28.8c0.6,3.2,4,4.6,7.8,4.6,4.8,0,9.8-2.2,9.8-6a4.4,4.4,0,0,0-.2-1.6c0-23.6,20.4-62.2,29.2-62.2,5.6,0,7.4,8.4,7.4,20.2,0,12.4-2,28.6-3.6,42.6v0.8c0,4,4.6,6.2,9.2,6.2,4,0,7.6-1.6,8.4-5a187.528,187.528,0,0,0,3.6-36.2c0-22.8-4.2-44.8-15.8-44.8C1003.66,72,982.457,90.6,971.457,116.8ZM1090.25,99.4c-0.6,7-1,14-1,21.4-3,13.4-11.79,25-20.99,25-11.4,0-16.2-10.8-16.2-24.8,0-17.6,11-36.8,24.6-36.8C1079.86,87.8,1087.65,91,1090.25,99.4Zm20.2-15.6c0-.2.2-0.4,0.2-0.6,0-4-4.6-6.2-9.2-6.2-4,0-7.8,1.6-8.6,5a3.4,3.4,0,0,0-.2,1.4c-6-7-14.39-11.6-23.79-11.6-19.4,0-34.6,24.6-34.6,49.2,0,19.6,9,37.2,26,37.2,11.6,0,22.39-6.8,29.79-16.8,0.4,4,1.2,7.8,2,12,0.6,3.2,4,4.8,7.8,4.8,4.8,0,9.8-2.4,9.8-6.2a4.4,4.4,0,0,0-.2-1.6c-2.4-6.6-3.4-14.4-3.4-22.6C1106.05,113,1108.85,96.8,1110.45,83.8Zm7.61,12c0,4.6.4,6.2,1,6.2,1,0,2.8-3.6,5-5.6,9.6-9.4,54.59-9.6,54.59-23.8,0-7.4-8.8-9.8-16.8-9.8C1144.26,62.8,1118.06,74,1118.06,95.8Zm7.6,27.8c13.4,6.6,20,44.4,36.99,44.4,4.6,0,9-2.8,9-8.8,0-19.6-23.59-42.4-41.39-42.4-6.2,0-9.8.8-9.8,2.4C1120.46,120.2,1122.06,121.6,1125.66,123.6Zm27-29c-13,0-32,7-32,12.4,0,2,3.4,3.4,12,3.4,24.4,0,39.39,24.8,61.39,24.8,4.4,0,11.4-4.2,11.4-11.4,0-5.4-5-12.2-18.8-19.2C1174.65,98.6,1165.85,94.6,1152.66,94.6Z"/>
  <path id="HUERTAS_ORGÁNICAS" data-name="HUERTAS ORGÁNICAS" class="cls-1" d="M689.418,217h5.9l5.976-28.633h-5.879l-2.324,11.055H682.016l2.3-11.055h-5.878l-6,28.633h5.9l2.676-12.793h11.074Zm13.649-13.555q-0.606,2.93-.684,3.555a12.129,12.129,0,0,0-.137,1.738,8.187,8.187,0,0,0,2.656,6.3q2.656,2.451,7.657,2.451a13.266,13.266,0,0,0,6.914-1.64,10.583,10.583,0,0,0,4.082-4.258,31.123,31.123,0,0,0,2.383-7.559l3.261-15.664H723.32l-3.281,15.645a25.565,25.565,0,0,1-1.543,5.371,5.336,5.336,0,0,1-2.148,2.383,6.957,6.957,0,0,1-3.516.8,5.253,5.253,0,0,1-3.6-1.1,3.588,3.588,0,0,1-1.241-2.8,5.733,5.733,0,0,1,.079-0.918l0.8-3.828,3.242-15.547h-5.878ZM750.484,217l1.016-4.785H734.84l1.8-7.774h14.824l1-4.785H737.633l1.367-6.5h15.332l1-4.785H734.1L728.121,217h22.363ZM762.3,205.145h2.4a5.519,5.519,0,0,1,2.93.566,8.8,8.8,0,0,1,2.578,3.73q2.228,5.138,2.988,7.559h6.329a71.159,71.159,0,0,0-4.395-9.492A11.521,11.521,0,0,0,773,204.832a10.475,10.475,0,0,0,6.621-2.939,8.547,8.547,0,0,0,2.188-6.026,8.064,8.064,0,0,0-1.123-4.355,5.8,5.8,0,0,0-2.95-2.471,15.3,15.3,0,0,0-5.107-.674H759.914l-6,28.633h5.9Zm2.5-11.993h6.484a7.732,7.732,0,0,1,3.379.469,2.572,2.572,0,0,1,1.27,2.344,4.258,4.258,0,0,1-.879,2.539,5.052,5.052,0,0,1-2.432,1.777,22.182,22.182,0,0,1-6.3.567H763.2Zm34.332,0h8.281l1-4.785H785.848l-1,4.785h8.4l-5,23.848h5.9ZM824.828,217h5.586l-4.648-28.633h-6.543L803.031,217h6.055l3.438-6.328h11.347Zm-10.254-11.094,6.914-11.523,1.661,11.523h-8.575Zm20.368,6.895a7.618,7.618,0,0,0,3.818,3.447,15.227,15.227,0,0,0,6.4,1.24q5.352,0,8.35-2.685a8.389,8.389,0,0,0,3-6.475,6.69,6.69,0,0,0-2.012-5.019q-1.347-1.329-6.289-3.457a19.648,19.648,0,0,1-4.238-2.247,2.532,2.532,0,0,1-.957-2.031,2.69,2.69,0,0,1,1.045-2.168,5.525,5.525,0,0,1,3.486-.859,5.6,5.6,0,0,1,3.75,1.094,4.6,4.6,0,0,1,1.485,3.144l5.644-.254a8.709,8.709,0,0,0-3.037-6.289q-2.764-2.362-7.8-2.363-4.961,0-7.578,2.383a7.762,7.762,0,0,0-2.617,6,7.173,7.173,0,0,0,.879,3.613,7.068,7.068,0,0,0,2.412,2.51,38.767,38.767,0,0,0,4.863,2.412,20.511,20.511,0,0,1,4.072,2.09,2.7,2.7,0,0,1,1.055,2.148,3.111,3.111,0,0,1-1.289,2.5,6.693,6.693,0,0,1-4.18,1.035q-3.476,0-4.765-1.523a6.253,6.253,0,0,1-.918-3.613l-5.606.293A10.467,10.467,0,0,0,834.942,212.8Zm36.847-1.612a10.13,10.13,0,0,0,3.848,4.5,11.816,11.816,0,0,0,6.719,1.817,15.255,15.255,0,0,0,8.261-2.285A15.9,15.9,0,0,0,896.4,208.7a19.308,19.308,0,0,0,2.128-8.769,11.885,11.885,0,0,0-3.271-8.75,11.549,11.549,0,0,0-8.584-3.3,15.128,15.128,0,0,0-7.07,1.611,14.706,14.706,0,0,0-5.147,4.385,19.175,19.175,0,0,0-3.037,6.543,20.476,20.476,0,0,0-.762,5.352A13.835,13.835,0,0,0,871.789,211.189Zm7.393-14.365A8.155,8.155,0,0,1,886.2,192.8a6.087,6.087,0,0,1,4.629,1.924,7.413,7.413,0,0,1,1.817,5.3,15.118,15.118,0,0,1-1.436,6.221,11.447,11.447,0,0,1-3.633,4.766,7.762,7.762,0,0,1-4.58,1.572,6.059,6.059,0,0,1-4.726-1.992,7.1,7.1,0,0,1-1.8-4.942A15.49,15.49,0,0,1,879.182,196.824Zm28.228,8.321h2.4a5.515,5.515,0,0,1,2.929.566,8.79,8.79,0,0,1,2.578,3.73q2.227,5.138,2.989,7.559h6.328a71.159,71.159,0,0,0-4.395-9.492,11.521,11.521,0,0,0-2.129-2.676,10.475,10.475,0,0,0,6.621-2.939,8.543,8.543,0,0,0,2.188-6.026,8.055,8.055,0,0,0-1.123-4.355,5.8,5.8,0,0,0-2.949-2.471,15.313,15.313,0,0,0-5.108-.674H905.027l-6,28.633h5.9Zm2.5-11.993H916.4a7.735,7.735,0,0,1,3.379.469,2.573,2.573,0,0,1,1.269,2.344,4.258,4.258,0,0,1-.879,2.539,5.049,5.049,0,0,1-2.431,1.777,22.187,22.187,0,0,1-6.3.567h-3.125Zm31.832,13.34h7.305l-0.879,4.258a17.541,17.541,0,0,1-3.437,1.279,14.866,14.866,0,0,1-3.887.537,6.316,6.316,0,0,1-4.805-1.728q-1.641-1.728-1.64-5.342a16.845,16.845,0,0,1,1.347-6.777,9.425,9.425,0,0,1,8.965-6.074,6.486,6.486,0,0,1,4.053,1.23,6.909,6.909,0,0,1,2.334,3.652l5.488-.625a11.152,11.152,0,0,0-3.975-6.718,12.712,12.712,0,0,0-7.959-2.305,14.794,14.794,0,0,0-8.632,2.539,16.3,16.3,0,0,0-5.664,7.148,19.921,19.921,0,0,0-1.661,8.008q0,6.231,3.868,9.512,2.831,2.4,8.144,2.4a22.627,22.627,0,0,0,6.709-1.015,22.368,22.368,0,0,0,5.557-2.481l2.578-12.285H942.738ZM976.621,217h5.586l-4.648-28.633h-6.543L954.824,217h6.055l3.438-6.328h11.347Zm-10.254-11.094,6.914-11.523,1.661,11.523h-8.575Zm6.289-19.2h3.731l6.328-5.859h-5.977Zm41.014,1.66h-5.47l-4,19.16-7.758-19.16h-5.508L984.957,217h5.488l4.024-19.238L1002.2,217h5.49ZM1018.33,217l5.98-28.633h-5.88l-6,28.633h5.9Zm22.37-5.918a6.647,6.647,0,0,1-4.19,1.484,5.252,5.252,0,0,1-4.11-1.875,7.783,7.783,0,0,1-1.65-5.312,16.7,16.7,0,0,1,1.27-6.3,10.08,10.08,0,0,1,3.39-4.639,7.788,7.788,0,0,1,4.56-1.484,5.353,5.353,0,0,1,3.56,1.123,5.949,5.949,0,0,1,1.81,3.623l5.64-.547a10.166,10.166,0,0,0-3.37-6.787,11.1,11.1,0,0,0-7.52-2.49,14.417,14.417,0,0,0-7.66,2.148,14.563,14.563,0,0,0-5.5,6.2,20.079,20.079,0,0,0-1.98,8.935q0,6.017,2.96,9.18t8.21,3.164a13.429,13.429,0,0,0,8.15-2.549,15.279,15.279,0,0,0,5.21-7.373l-5.94-.9A8.756,8.756,0,0,1,1040.7,211.082ZM1070.39,217h5.59l-4.65-28.633h-6.54L1048.6,217h6.05l3.44-6.328h11.35Zm-10.25-11.094,6.91-11.523,1.66,11.523h-8.57Zm20.37,6.895a7.59,7.59,0,0,0,3.82,3.447,15.192,15.192,0,0,0,6.39,1.24q5.355,0,8.35-2.685a8.388,8.388,0,0,0,3-6.475,6.692,6.692,0,0,0-2.01-5.019q-1.35-1.329-6.29-3.457a19.653,19.653,0,0,1-4.24-2.247,2.529,2.529,0,0,1-.96-2.031,2.686,2.686,0,0,1,1.05-2.168,5.542,5.542,0,0,1,3.49-.859,5.618,5.618,0,0,1,3.75,1.094,4.6,4.6,0,0,1,1.48,3.144l5.64-.254a8.7,8.7,0,0,0-3.03-6.289q-2.775-2.362-7.81-2.363c-3.3,0-5.83.794-7.57,2.383a7.748,7.748,0,0,0-2.62,6,7.133,7.133,0,0,0,.88,3.613,7.028,7.028,0,0,0,2.41,2.51,38.539,38.539,0,0,0,4.86,2.412,20.834,20.834,0,0,1,4.08,2.09,2.7,2.7,0,0,1,1.05,2.148,3.109,3.109,0,0,1-1.29,2.5,6.69,6.69,0,0,1-4.18,1.035c-2.32,0-3.9-.507-4.76-1.523a6.219,6.219,0,0,1-.92-3.613l-5.61.293A10.526,10.526,0,0,0,1080.51,212.8Z"/>
</svg>
